<?xml version="1.0" encoding="UTF-8" standalone="no"?>
<!DOCTYPE svg PUBLIC "-//W3C//DTD SVG 1.1//EN"
 "http://www.w3.org/Graphics/SVG/1.1/DTD/svg11.dtd">
<!-- Generated by graphviz version 12.2.1 (20241206.2353)
 -->
<!-- Pages: 1 -->
<svg width="1259pt" height="1340pt"
 viewBox="0.00 0.00 1258.50 1340.00" xmlns="http://www.w3.org/2000/svg" xmlns:xlink="http://www.w3.org/1999/xlink">
<g id="graph0" class="graph" transform="scale(1 1) rotate(0) translate(4 1336)">
<polygon fill="white" stroke="none" points="-4,4 -4,-1336 1254.5,-1336 1254.5,4 -4,4"/>
<!-- 0 -->
<g id="node1" class="node">
<title>0</title>
<polygon fill="none" stroke="black" points="1250.5,-612 1125.75,-612 1125.75,-576 1250.5,-576 1250.5,-612"/>
<text text-anchor="middle" x="1188.12" y="-588.95" font-family="Times,serif" font-size="14.00">common&#45;http&#45;client</text>
</g>
<!-- 7 -->
<g id="node8" class="node">
<title>7</title>
<polygon fill="none" stroke="black" points="1101.25,-396 975,-396 975,-360 1101.25,-360 1101.25,-396"/>
<text text-anchor="middle" x="1038.12" y="-372.95" font-family="Times,serif" font-size="14.00">nomos&#45;da&#45;messages</text>
</g>
<!-- 0&#45;&gt;7 -->
<g id="edge1" class="edge">
<title>0&#45;&gt;7</title>
<path fill="none" stroke="black" d="M1189.25,-575.62C1190.38,-543.61 1188.32,-474.7 1154.12,-432 1143.17,-418.32 1127.9,-408.03 1112.03,-400.35"/>
<polygon fill="black" stroke="black" points="1113.49,-397.17 1102.93,-396.28 1110.63,-403.56 1113.49,-397.17"/>
</g>
<!-- 1 -->
<g id="node2" class="node">
<title>1</title>
<polygon fill="none" stroke="black" points="359.38,-252 278.88,-252 278.88,-216 359.38,-216 359.38,-252"/>
<text text-anchor="middle" x="319.12" y="-228.95" font-family="Times,serif" font-size="14.00">nomos&#45;core</text>
</g>
<!-- 4 -->
<g id="node5" class="node">
<title>4</title>
<polygon fill="none" stroke="black" points="364.62,-180 273.62,-180 273.62,-144 364.62,-144 364.62,-180"/>
<text text-anchor="middle" x="319.12" y="-156.95" font-family="Times,serif" font-size="14.00">nomos&#45;ledger</text>
</g>
<!-- 1&#45;&gt;4 -->
<g id="edge2" class="edge">
<title>1&#45;&gt;4</title>
<path fill="none" stroke="black" d="M319.12,-215.7C319.12,-208.41 319.12,-199.73 319.12,-191.54"/>
<polygon fill="black" stroke="black" points="322.63,-191.62 319.13,-181.62 315.63,-191.62 322.63,-191.62"/>
</g>
<!-- 2 -->
<g id="node3" class="node">
<title>2</title>
<polygon fill="none" stroke="black" points="346.12,-36 292.12,-36 292.12,0 346.12,0 346.12,-36"/>
<text text-anchor="middle" x="319.12" y="-12.95" font-family="Times,serif" font-size="14.00">cl</text>
</g>
<!-- 3 -->
<g id="node4" class="node">
<title>3</title>
<polygon fill="none" stroke="black" points="224.75,-108 107.5,-108 107.5,-72 224.75,-72 224.75,-108"/>
<text text-anchor="middle" x="166.12" y="-84.95" font-family="Times,serif" font-size="14.00">cryptarchia&#45;engine</text>
</g>
<!-- 4&#45;&gt;3 -->
<g id="edge3" class="edge">
<title>4&#45;&gt;3</title>
<path fill="none" stroke="black" d="M280.91,-143.52C260.75,-134.29 235.82,-122.89 214.34,-113.06"/>
<polygon fill="black" stroke="black" points="216.04,-109.99 205.49,-109.01 213.13,-116.35 216.04,-109.99"/>
</g>
<!-- 5 -->
<g id="node6" class="node">
<title>5</title>
<polygon fill="none" stroke="black" points="494.38,-108 413.88,-108 413.88,-72 494.38,-72 494.38,-108"/>
<text text-anchor="middle" x="454.12" y="-84.95" font-family="Times,serif" font-size="14.00">nomos&#45;utils</text>
</g>
<!-- 4&#45;&gt;5 -->
<g id="edge4" class="edge">
<title>4&#45;&gt;5</title>
<path fill="none" stroke="black" stroke-dasharray="1,5" d="M352.84,-143.52C370.37,-134.43 391.99,-123.22 410.75,-113.49"/>
<polygon fill="black" stroke="black" points="412.23,-116.67 419.49,-108.96 409,-110.45 412.23,-116.67"/>
</g>
<!-- 6 -->
<g id="node7" class="node">
<title>6</title>
<polygon fill="none" stroke="black" points="395.75,-108 242.5,-108 242.5,-72 395.75,-72 395.75,-108"/>
<text text-anchor="middle" x="319.12" y="-84.95" font-family="Times,serif" font-size="14.00">nomos_proof_statements</text>
</g>
<!-- 4&#45;&gt;6 -->
<g id="edge5" class="edge">
<title>4&#45;&gt;6</title>
<path fill="none" stroke="black" d="M319.12,-143.7C319.12,-136.41 319.12,-127.73 319.12,-119.54"/>
<polygon fill="black" stroke="black" points="322.63,-119.62 319.13,-109.62 315.63,-119.62 322.63,-119.62"/>
</g>
<!-- 6&#45;&gt;2 -->
<g id="edge6" class="edge">
<title>6&#45;&gt;2</title>
<path fill="none" stroke="black" d="M319.12,-71.7C319.12,-64.41 319.12,-55.73 319.12,-47.54"/>
<polygon fill="black" stroke="black" points="322.63,-47.62 319.13,-37.62 315.63,-47.62 322.63,-47.62"/>
</g>
<!-- 8 -->
<g id="node9" class="node">
<title>8</title>
<polygon fill="none" stroke="black" points="1085.5,-324 990.75,-324 990.75,-288 1085.5,-288 1085.5,-324"/>
<text text-anchor="middle" x="1038.12" y="-300.95" font-family="Times,serif" font-size="14.00">kzgrs&#45;backend</text>
</g>
<!-- 7&#45;&gt;8 -->
<g id="edge7" class="edge">
<title>7&#45;&gt;8</title>
<path fill="none" stroke="black" d="M1032.21,-359.7C1031.46,-352.41 1031.21,-343.73 1031.48,-335.54"/>
<polygon fill="black" stroke="black" points="1034.97,-335.82 1032.13,-325.61 1027.98,-335.36 1034.97,-335.82"/>
</g>
<!-- 7&#45;&gt;8 -->
<g id="edge8" class="edge">
<title>7&#45;&gt;8</title>
<path fill="none" stroke="blue" d="M1044.04,-359.7C1044.79,-352.41 1045.04,-343.73 1044.77,-335.54"/>
<polygon fill="blue" stroke="blue" points="1048.27,-335.36 1044.12,-325.61 1041.28,-335.82 1048.27,-335.36"/>
</g>
<!-- 8&#45;&gt;1 -->
<g id="edge10" class="edge">
<title>8&#45;&gt;1</title>
<path fill="none" stroke="black" d="M990.39,-300.35C861.02,-287.76 504.43,-253.04 370.69,-240.02"/>
<polygon fill="black" stroke="black" points="371.37,-236.57 361.08,-239.08 370.69,-243.54 371.37,-236.57"/>
</g>
<!-- 9 -->
<g id="node10" class="node">
<title>9</title>
<polygon fill="none" stroke="black" points="1065.12,-252 1011.12,-252 1011.12,-216 1065.12,-216 1065.12,-252"/>
<text text-anchor="middle" x="1038.12" y="-228.95" font-family="Times,serif" font-size="14.00">kzgrs</text>
</g>
<!-- 8&#45;&gt;9 -->
<g id="edge9" class="edge">
<title>8&#45;&gt;9</title>
<path fill="none" stroke="black" d="M1038.12,-287.7C1038.12,-280.41 1038.12,-271.73 1038.12,-263.54"/>
<polygon fill="black" stroke="black" points="1041.63,-263.62 1038.13,-253.62 1034.63,-263.62 1041.63,-263.62"/>
</g>
<!-- 10 -->
<g id="node11" class="node">
<title>10</title>
<polygon fill="none" stroke="black" points="538.38,-1188 415.88,-1188 415.88,-1152 538.38,-1152 538.38,-1188"/>
<text text-anchor="middle" x="477.12" y="-1164.95" font-family="Times,serif" font-size="14.00">executor&#45;http&#45;client</text>
</g>
<!-- 11 -->
<g id="node12" class="node">
<title>11</title>
<polygon fill="none" stroke="black" points="529,-1116 425.25,-1116 425.25,-1080 529,-1080 529,-1116"/>
<text text-anchor="middle" x="477.12" y="-1092.95" font-family="Times,serif" font-size="14.00">nomos&#45;executor</text>
</g>
<!-- 10&#45;&gt;11 -->
<g id="edge11" class="edge">
<title>10&#45;&gt;11</title>
<path fill="none" stroke="black" d="M477.12,-1151.7C477.12,-1144.41 477.12,-1135.73 477.12,-1127.54"/>
<polygon fill="black" stroke="black" points="480.63,-1127.62 477.13,-1117.62 473.63,-1127.62 480.63,-1127.62"/>
</g>
<!-- 34 -->
<g id="node35" class="node">
<title>34</title>
<polygon fill="none" stroke="black" points="518.88,-1044 435.38,-1044 435.38,-1008 518.88,-1008 518.88,-1044"/>
<text text-anchor="middle" x="477.12" y="-1020.95" font-family="Times,serif" font-size="14.00">nomos&#45;node</text>
</g>
<!-- 11&#45;&gt;34 -->
<g id="edge12" class="edge">
<title>11&#45;&gt;34</title>
<path fill="none" stroke="black" d="M477.12,-1079.7C477.12,-1072.41 477.12,-1063.73 477.12,-1055.54"/>
<polygon fill="black" stroke="black" points="480.63,-1055.62 477.13,-1045.62 473.63,-1055.62 480.63,-1055.62"/>
</g>
<!-- 12 -->
<g id="node13" class="node">
<title>12</title>
<polygon fill="none" stroke="black" points="575,-972 501.25,-972 501.25,-936 575,-936 575,-972"/>
<text text-anchor="middle" x="538.12" y="-948.95" font-family="Times,serif" font-size="14.00">nomos&#45;api</text>
</g>
<!-- 32 -->
<g id="node33" class="node">
<title>32</title>
<polygon fill="none" stroke="black" points="736.38,-900 613.88,-900 613.88,-864 736.38,-864 736.38,-900"/>
<text text-anchor="middle" x="675.12" y="-876.95" font-family="Times,serif" font-size="14.00">nomos&#45;da&#45;dispersal</text>
</g>
<!-- 12&#45;&gt;32 -->
<g id="edge13" class="edge">
<title>12&#45;&gt;32</title>
<path fill="none" stroke="black" d="M572.34,-935.52C590.13,-926.43 612.07,-915.22 631.11,-905.49"/>
<polygon fill="black" stroke="black" points="632.68,-908.62 640,-900.95 629.5,-902.38 632.68,-908.62"/>
</g>
<!-- 33 -->
<g id="node34" class="node">
<title>33</title>
<polygon fill="none" stroke="black" points="595.62,-900 480.62,-900 480.62,-864 595.62,-864 595.62,-900"/>
<text text-anchor="middle" x="538.12" y="-876.95" font-family="Times,serif" font-size="14.00">nomos&#45;da&#45;indexer</text>
</g>
<!-- 12&#45;&gt;33 -->
<g id="edge14" class="edge">
<title>12&#45;&gt;33</title>
<path fill="none" stroke="black" d="M538.12,-935.7C538.12,-928.41 538.12,-919.73 538.12,-911.54"/>
<polygon fill="black" stroke="black" points="541.63,-911.62 538.13,-901.62 534.63,-911.62 541.63,-911.62"/>
</g>
<!-- 13 -->
<g id="node14" class="node">
<title>13</title>
<polygon fill="none" stroke="black" points="627.12,-828 491.12,-828 491.12,-792 627.12,-792 627.12,-828"/>
<text text-anchor="middle" x="559.12" y="-804.95" font-family="Times,serif" font-size="14.00">cryptarchia&#45;consensus</text>
</g>
<!-- 14 -->
<g id="node15" class="node">
<title>14</title>
<polygon fill="none" stroke="black" points="359.12,-612 229.12,-612 229.12,-576 359.12,-576 359.12,-612"/>
<text text-anchor="middle" x="294.12" y="-588.95" font-family="Times,serif" font-size="14.00">nomos&#45;blend&#45;service</text>
</g>
<!-- 13&#45;&gt;14 -->
<g id="edge15" class="edge">
<title>13&#45;&gt;14</title>
<path fill="none" stroke="black" d="M537.04,-791.65C523.95,-781.33 507.05,-767.97 492.12,-756 432.29,-708.01 362.83,-651.3 324.13,-619.61"/>
<polygon fill="black" stroke="black" points="326.56,-617.07 316.61,-613.45 322.13,-622.49 326.56,-617.07"/>
</g>
<!-- 29 -->
<g id="node30" class="node">
<title>29</title>
<polygon fill="none" stroke="black" points="730,-756 620.25,-756 620.25,-720 730,-720 730,-756"/>
<text text-anchor="middle" x="675.12" y="-732.95" font-family="Times,serif" font-size="14.00">nomos&#45;mempool</text>
</g>
<!-- 13&#45;&gt;29 -->
<g id="edge16" class="edge">
<title>13&#45;&gt;29</title>
<path fill="none" stroke="black" d="M588.1,-791.52C602.88,-782.6 621.05,-771.63 636.96,-762.03"/>
<polygon fill="black" stroke="black" points="638.47,-765.21 645.23,-757.04 634.86,-759.21 638.47,-765.21"/>
</g>
<!-- 31 -->
<g id="node32" class="node">
<title>31</title>
<polygon fill="none" stroke="black" points="314.12,-540 232.12,-540 232.12,-504 314.12,-504 314.12,-540"/>
<text text-anchor="middle" x="273.12" y="-516.95" font-family="Times,serif" font-size="14.00">nomos&#45;time</text>
</g>
<!-- 13&#45;&gt;31 -->
<g id="edge17" class="edge">
<title>13&#45;&gt;31</title>
<path fill="none" stroke="black" d="M548.23,-791.63C521.59,-750.19 449.37,-643.95 368.12,-576 354.22,-564.37 337.39,-554.01 321.78,-545.61"/>
<polygon fill="black" stroke="black" points="323.57,-542.59 313.08,-541.07 320.33,-548.8 323.57,-542.59"/>
</g>
<!-- 14&#45;&gt;1 -->
<g id="edge19" class="edge">
<title>14&#45;&gt;1</title>
<path fill="none" stroke="black" d="M261.19,-575.56C247.44,-566.68 232.5,-554.63 223.12,-540 201.3,-505.95 204.12,-491.45 204.12,-451 204.12,-451 204.12,-451 204.12,-377 204.12,-326.54 248.51,-283.97 282.13,-258.96"/>
<polygon fill="black" stroke="black" points="283.98,-261.95 290.06,-253.27 279.9,-256.26 283.98,-261.95"/>
</g>
<!-- 17 -->
<g id="node18" class="node">
<title>17</title>
<polygon fill="none" stroke="black" points="163.12,-540 27.12,-540 27.12,-504 163.12,-504 163.12,-540"/>
<text text-anchor="middle" x="95.12" y="-516.95" font-family="Times,serif" font-size="14.00">nomos&#45;blend&#45;network</text>
</g>
<!-- 14&#45;&gt;17 -->
<g id="edge18" class="edge">
<title>14&#45;&gt;17</title>
<path fill="none" stroke="black" d="M244.42,-575.52C217.37,-566 183.7,-554.16 155.19,-544.13"/>
<polygon fill="black" stroke="black" points="156.56,-540.9 145.97,-540.88 154.24,-547.5 156.56,-540.9"/>
</g>
<!-- 19 -->
<g id="node20" class="node">
<title>19</title>
<polygon fill="none" stroke="black" points="643.88,-540 542.38,-540 542.38,-504 643.88,-504 643.88,-540"/>
<text text-anchor="middle" x="593.12" y="-516.95" font-family="Times,serif" font-size="14.00">nomos&#45;network</text>
</g>
<!-- 14&#45;&gt;19 -->
<g id="edge20" class="edge">
<title>14&#45;&gt;19</title>
<path fill="none" stroke="black" d="M359.37,-577.72C410.33,-565.79 480.68,-549.32 530.87,-537.58"/>
<polygon fill="black" stroke="black" points="531.48,-541.03 540.41,-535.34 529.88,-534.21 531.48,-541.03"/>
</g>
<!-- 15 -->
<g id="node16" class="node">
<title>15</title>
<polygon fill="none" stroke="black" points="125.75,-468 38.5,-468 38.5,-432 125.75,-432 125.75,-468"/>
<text text-anchor="middle" x="82.12" y="-444.95" font-family="Times,serif" font-size="14.00">nomos&#45;blend</text>
</g>
<!-- 16 -->
<g id="node17" class="node">
<title>16</title>
<polygon fill="none" stroke="black" points="138.25,-396 0,-396 0,-360 138.25,-360 138.25,-396"/>
<text text-anchor="middle" x="69.12" y="-372.95" font-family="Times,serif" font-size="14.00">nomos&#45;blend&#45;message</text>
</g>
<!-- 15&#45;&gt;16 -->
<g id="edge21" class="edge">
<title>15&#45;&gt;16</title>
<path fill="none" stroke="black" d="M78.91,-431.7C77.54,-424.32 75.91,-415.52 74.37,-407.25"/>
<polygon fill="black" stroke="black" points="77.85,-406.79 72.58,-397.59 70.96,-408.06 77.85,-406.79"/>
</g>
<!-- 17&#45;&gt;15 -->
<g id="edge22" class="edge">
<title>17&#45;&gt;15</title>
<path fill="none" stroke="black" d="M91.91,-503.7C90.54,-496.32 88.91,-487.52 87.37,-479.25"/>
<polygon fill="black" stroke="black" points="90.85,-478.79 85.58,-469.59 83.96,-480.06 90.85,-478.79"/>
</g>
<!-- 18 -->
<g id="node19" class="node">
<title>18</title>
<polygon fill="none" stroke="black" points="768,-468 676.25,-468 676.25,-432 768,-432 768,-468"/>
<text text-anchor="middle" x="722.12" y="-444.95" font-family="Times,serif" font-size="14.00">nomos&#45;libp2p</text>
</g>
<!-- 19&#45;&gt;18 -->
<g id="edge23" class="edge">
<title>19&#45;&gt;18</title>
<path fill="none" stroke="black" stroke-dasharray="1,5" d="M625.34,-503.52C642.02,-494.47 662.56,-483.32 680.43,-473.62"/>
<polygon fill="black" stroke="black" points="681.87,-476.83 688.99,-468.98 678.53,-470.68 681.87,-476.83"/>
</g>
<!-- 20 -->
<g id="node21" class="node">
<title>20</title>
<polygon fill="none" stroke="black" points="596.75,-468 509.5,-468 509.5,-432 596.75,-432 596.75,-468"/>
<text text-anchor="middle" x="553.12" y="-444.95" font-family="Times,serif" font-size="14.00">services&#45;utils</text>
</g>
<!-- 19&#45;&gt;20 -->
<g id="edge24" class="edge">
<title>19&#45;&gt;20</title>
<path fill="none" stroke="black" d="M583.24,-503.7C578.78,-495.9 573.42,-486.51 568.46,-477.83"/>
<polygon fill="black" stroke="black" points="571.65,-476.36 563.65,-469.42 565.57,-479.84 571.65,-476.36"/>
</g>
<!-- 21 -->
<g id="node22" class="node">
<title>21</title>
<polygon fill="none" stroke="black" points="904.5,-684 779.75,-684 779.75,-648 904.5,-648 904.5,-684"/>
<text text-anchor="middle" x="842.12" y="-660.95" font-family="Times,serif" font-size="14.00">nomos&#45;da&#45;sampling</text>
</g>
<!-- 21&#45;&gt;0 -->
<g id="edge25" class="edge">
<title>21&#45;&gt;0</title>
<path fill="none" stroke="black" d="M904.78,-652.32C963.75,-640.39 1052.08,-622.52 1114.42,-609.91"/>
<polygon fill="black" stroke="black" points="1114.76,-613.41 1123.87,-608 1113.37,-606.55 1114.76,-613.41"/>
</g>
<!-- 27 -->
<g id="node28" class="node">
<title>27</title>
<polygon fill="none" stroke="black" points="899.25,-612 785,-612 785,-576 899.25,-576 899.25,-612"/>
<text text-anchor="middle" x="842.12" y="-588.95" font-family="Times,serif" font-size="14.00">nomos&#45;da&#45;verifier</text>
</g>
<!-- 21&#45;&gt;27 -->
<g id="edge26" class="edge">
<title>21&#45;&gt;27</title>
<path fill="none" stroke="black" d="M842.12,-647.7C842.12,-640.41 842.12,-631.73 842.12,-623.54"/>
<polygon fill="black" stroke="black" points="845.63,-623.62 842.13,-613.62 838.63,-623.62 845.63,-623.62"/>
</g>
<!-- 22 -->
<g id="node23" class="node">
<title>22</title>
<polygon fill="none" stroke="black" points="1032.38,-468 885.88,-468 885.88,-432 1032.38,-432 1032.38,-468"/>
<text text-anchor="middle" x="959.12" y="-444.95" font-family="Times,serif" font-size="14.00">nomos&#45;da&#45;network&#45;core</text>
</g>
<!-- 22&#45;&gt;7 -->
<g id="edge27" class="edge">
<title>22&#45;&gt;7</title>
<path fill="none" stroke="black" d="M978.65,-431.7C988.15,-423.28 999.73,-413.02 1010.15,-403.79"/>
<polygon fill="black" stroke="black" points="1012.25,-406.6 1017.41,-397.35 1007.61,-401.36 1012.25,-406.6"/>
</g>
<!-- 23 -->
<g id="node24" class="node">
<title>23</title>
<polygon fill="none" stroke="black" points="956.5,-396 801.75,-396 801.75,-360 956.5,-360 956.5,-396"/>
<text text-anchor="middle" x="879.12" y="-372.95" font-family="Times,serif" font-size="14.00">subnetworks&#45;assignations</text>
</g>
<!-- 22&#45;&gt;23 -->
<g id="edge28" class="edge">
<title>22&#45;&gt;23</title>
<path fill="none" stroke="black" d="M939.35,-431.7C929.73,-423.28 918,-413.02 907.46,-403.79"/>
<polygon fill="black" stroke="black" points="909.92,-401.29 900.09,-397.34 905.31,-406.56 909.92,-401.29"/>
</g>
<!-- 24 -->
<g id="node25" class="node">
<title>24</title>
<polygon fill="none" stroke="black" points="1069.88,-540 908.38,-540 908.38,-504 1069.88,-504 1069.88,-540"/>
<text text-anchor="middle" x="989.12" y="-516.95" font-family="Times,serif" font-size="14.00">nomos&#45;da&#45;network&#45;service</text>
</g>
<!-- 24&#45;&gt;18 -->
<g id="edge30" class="edge">
<title>24&#45;&gt;18</title>
<path fill="none" stroke="black" d="M922.44,-503.52C878.34,-491.96 821.14,-476.96 779.16,-465.95"/>
<polygon fill="black" stroke="black" points="780.32,-462.64 769.76,-463.49 778.54,-469.41 780.32,-462.64"/>
</g>
<!-- 24&#45;&gt;20 -->
<g id="edge32" class="edge">
<title>24&#45;&gt;20</title>
<path fill="none" stroke="black" d="M908.2,-505.58C905.13,-505.04 902.1,-504.51 899.12,-504 844.35,-494.63 691.23,-471.6 608.25,-459.21"/>
<polygon fill="black" stroke="black" points="608.93,-455.77 598.52,-457.75 607.9,-462.69 608.93,-455.77"/>
</g>
<!-- 24&#45;&gt;22 -->
<g id="edge29" class="edge">
<title>24&#45;&gt;22</title>
<path fill="none" stroke="black" d="M981.71,-503.7C978.48,-496.15 974.6,-487.12 970.99,-478.68"/>
<polygon fill="black" stroke="black" points="974.21,-477.31 967.05,-469.5 967.77,-480.07 974.21,-477.31"/>
</g>
<!-- 25 -->
<g id="node26" class="node">
<title>25</title>
<polygon fill="none" stroke="black" points="1145.5,-468 1050.75,-468 1050.75,-432 1145.5,-432 1145.5,-468"/>
<text text-anchor="middle" x="1098.12" y="-444.95" font-family="Times,serif" font-size="14.00">nomos&#45;tracing</text>
</g>
<!-- 24&#45;&gt;25 -->
<g id="edge31" class="edge">
<title>24&#45;&gt;25</title>
<path fill="none" stroke="black" d="M1016.35,-503.52C1030.11,-494.68 1046.99,-483.84 1061.84,-474.3"/>
<polygon fill="black" stroke="black" points="1063.45,-477.43 1069.97,-469.08 1059.67,-471.54 1063.45,-477.43"/>
</g>
<!-- 26 -->
<g id="node27" class="node">
<title>26</title>
<polygon fill="none" stroke="black" points="775.88,-540 662.38,-540 662.38,-504 775.88,-504 775.88,-540"/>
<text text-anchor="middle" x="719.12" y="-516.95" font-family="Times,serif" font-size="14.00">nomos&#45;da&#45;storage</text>
</g>
<!-- 27&#45;&gt;24 -->
<g id="edge33" class="edge">
<title>27&#45;&gt;24</title>
<path fill="none" stroke="black" d="M878.84,-575.52C898.03,-566.38 921.73,-555.09 942.23,-545.33"/>
<polygon fill="black" stroke="black" points="943.73,-548.49 951.26,-541.03 940.72,-542.17 943.73,-548.49"/>
</g>
<!-- 27&#45;&gt;26 -->
<g id="edge34" class="edge">
<title>27&#45;&gt;26</title>
<path fill="none" stroke="black" d="M811.4,-575.52C795.58,-566.51 776.1,-555.42 759.12,-545.76"/>
<polygon fill="black" stroke="black" points="761.19,-542.91 750.77,-541.01 757.73,-549 761.19,-542.91"/>
</g>
<!-- 28 -->
<g id="node29" class="node">
<title>28</title>
<polygon fill="none" stroke="black" points="890.25,-540 794,-540 794,-504 890.25,-504 890.25,-540"/>
<text text-anchor="middle" x="842.12" y="-516.95" font-family="Times,serif" font-size="14.00">nomos&#45;storage</text>
</g>
<!-- 27&#45;&gt;28 -->
<g id="edge35" class="edge">
<title>27&#45;&gt;28</title>
<path fill="none" stroke="black" d="M842.12,-575.7C842.12,-568.41 842.12,-559.73 842.12,-551.54"/>
<polygon fill="black" stroke="black" points="845.63,-551.62 842.13,-541.62 838.63,-551.62 845.63,-551.62"/>
</g>
<!-- 28&#45;&gt;20 -->
<g id="edge36" class="edge">
<title>28&#45;&gt;20</title>
<path fill="none" stroke="black" d="M793.68,-506.32C790.79,-505.51 787.92,-504.74 785.12,-504 724.96,-488.17 655.3,-472.63 608.14,-462.51"/>
<polygon fill="black" stroke="black" points="608.94,-459.1 598.43,-460.43 607.48,-465.95 608.94,-459.1"/>
</g>
<!-- 29&#45;&gt;19 -->
<g id="edge39" class="edge">
<title>29&#45;&gt;19</title>
<path fill="none" stroke="black" d="M668.55,-719.85C654.43,-682.99 621.07,-595.92 603.84,-550.96"/>
<polygon fill="black" stroke="black" points="607.12,-549.73 600.27,-541.65 600.58,-552.24 607.12,-549.73"/>
</g>
<!-- 29&#45;&gt;21 -->
<g id="edge37" class="edge">
<title>29&#45;&gt;21</title>
<path fill="none" stroke="black" d="M716.84,-719.52C739.04,-710.21 766.55,-698.68 790.13,-688.79"/>
<polygon fill="black" stroke="black" points="791.39,-692.06 799.26,-684.97 788.69,-685.6 791.39,-692.06"/>
</g>
<!-- 29&#45;&gt;29 -->
<g id="edge38" class="edge">
<title>29&#45;&gt;29</title>
<path fill="none" stroke="blue" d="M730.42,-750.81C740.73,-749.23 748,-744.96 748,-738 748,-733.87 745.44,-730.68 741.2,-728.45"/>
<polygon fill="blue" stroke="blue" points="742.45,-725.17 731.87,-725.63 740.43,-731.87 742.45,-725.17"/>
</g>
<!-- 30 -->
<g id="node31" class="node">
<title>30</title>
<polygon fill="none" stroke="black" points="1113.88,-684 976.38,-684 976.38,-648 1113.88,-648 1113.88,-684"/>
<text text-anchor="middle" x="1045.12" y="-660.95" font-family="Times,serif" font-size="14.00">nomos&#45;tracing&#45;service</text>
</g>
<!-- 29&#45;&gt;30 -->
<g id="edge40" class="edge">
<title>29&#45;&gt;30</title>
<path fill="none" stroke="blue" d="M730.12,-726.6C792.22,-714.85 893.85,-695.62 964.82,-682.19"/>
<polygon fill="blue" stroke="blue" points="965.28,-685.67 974.45,-680.37 963.98,-678.79 965.28,-685.67"/>
</g>
<!-- 30&#45;&gt;25 -->
<g id="edge41" class="edge">
<title>30&#45;&gt;25</title>
<path fill="none" stroke="black" d="M1050.16,-647.69C1057.08,-623.63 1069.74,-578.69 1079.12,-540 1084,-519.91 1088.85,-497.12 1092.43,-479.62"/>
<polygon fill="black" stroke="black" points="1095.84,-480.44 1094.39,-469.94 1088.98,-479.05 1095.84,-480.44"/>
</g>
<!-- 31&#45;&gt;3 -->
<g id="edge42" class="edge">
<title>31&#45;&gt;3</title>
<path fill="none" stroke="black" d="M247.77,-503.57C216.13,-479.54 166.12,-433.02 166.12,-379 166.12,-379 166.12,-379 166.12,-233 166.12,-193.74 166.12,-148.38 166.12,-119.69"/>
<polygon fill="black" stroke="black" points="169.63,-120 166.13,-110 162.63,-120 169.63,-120"/>
</g>
<!-- 31&#45;&gt;20 -->
<g id="edge43" class="edge">
<title>31&#45;&gt;20</title>
<path fill="none" stroke="black" d="M314.49,-506.57C317.41,-505.67 320.3,-504.8 323.12,-504 382.29,-487.17 451.16,-471.85 498,-462.06"/>
<polygon fill="black" stroke="black" points="498.56,-465.52 507.64,-460.06 497.14,-458.67 498.56,-465.52"/>
</g>
<!-- 32&#45;&gt;29 -->
<g id="edge44" class="edge">
<title>32&#45;&gt;29</title>
<path fill="none" stroke="black" d="M675.12,-863.59C675.12,-839.61 675.12,-796.14 675.12,-767.42"/>
<polygon fill="black" stroke="black" points="678.63,-767.62 675.13,-757.62 671.63,-767.62 678.63,-767.62"/>
</g>
<!-- 33&#45;&gt;13 -->
<g id="edge45" class="edge">
<title>33&#45;&gt;13</title>
<path fill="none" stroke="black" d="M543.32,-863.7C545.55,-856.24 548.23,-847.32 550.74,-838.97"/>
<polygon fill="black" stroke="black" points="554.04,-840.14 553.56,-829.55 547.33,-838.13 554.04,-840.14"/>
</g>
<!-- 34&#45;&gt;12 -->
<g id="edge46" class="edge">
<title>34&#45;&gt;12</title>
<path fill="none" stroke="black" d="M492.2,-1007.7C499.3,-999.56 507.9,-989.69 515.73,-980.7"/>
<polygon fill="black" stroke="black" points="518.29,-983.08 522.23,-973.25 513.02,-978.49 518.29,-983.08"/>
</g>
<!-- 35 -->
<g id="node36" class="node">
<title>35</title>
<polygon fill="none" stroke="black" points="473,-828 357.25,-828 357.25,-792 473,-792 473,-828"/>
<text text-anchor="middle" x="415.12" y="-804.95" font-family="Times,serif" font-size="14.00">nomos&#45;system&#45;sig</text>
</g>
<!-- 34&#45;&gt;35 -->
<g id="edge47" class="edge">
<title>34&#45;&gt;35</title>
<path fill="none" stroke="black" d="M472.16,-1007.85C461.5,-971.07 436.36,-884.29 423.31,-839.24"/>
<polygon fill="black" stroke="black" points="426.68,-838.32 420.54,-829.69 419.96,-840.27 426.68,-838.32"/>
</g>
<!-- 35&#45;&gt;20 -->
<g id="edge48" class="edge">
<title>35&#45;&gt;20</title>
<path fill="none" stroke="black" d="M421.78,-791.73C443.92,-734.31 515.19,-549.42 542.41,-478.79"/>
<polygon fill="black" stroke="black" points="545.66,-480.1 545.99,-469.51 539.13,-477.58 545.66,-480.1"/>
</g>
<!-- 36 -->
<g id="node37" class="node">
<title>36</title>
<polygon fill="none" stroke="black" points="621.75,-1332 564.5,-1332 564.5,-1296 621.75,-1296 621.75,-1332"/>
<text text-anchor="middle" x="593.12" y="-1308.95" font-family="Times,serif" font-size="14.00">bundler</text>
</g>
<!-- 37 -->
<g id="node38" class="node">
<title>37</title>
<polygon fill="none" stroke="black" points="472.5,-1260 401.75,-1260 401.75,-1224 472.5,-1224 472.5,-1260"/>
<text text-anchor="middle" x="437.12" y="-1236.95" font-family="Times,serif" font-size="14.00">nomos&#45;cli</text>
</g>
<!-- 37&#45;&gt;10 -->
<g id="edge49" class="edge">
<title>37&#45;&gt;10</title>
<path fill="none" stroke="black" d="M447.01,-1223.7C451.47,-1215.9 456.83,-1206.51 461.79,-1197.83"/>
<polygon fill="black" stroke="black" points="464.68,-1199.84 466.6,-1189.42 458.6,-1196.36 464.68,-1199.84"/>
</g>
<!-- 38 -->
<g id="node39" class="node">
<title>38</title>
<polygon fill="none" stroke="black" points="367.62,-324 270.62,-324 270.62,-288 367.62,-288 367.62,-324"/>
<text text-anchor="middle" x="319.12" y="-300.95" font-family="Times,serif" font-size="14.00">full&#45;replication</text>
</g>
<!-- 38&#45;&gt;1 -->
<g id="edge50" class="edge">
<title>38&#45;&gt;1</title>
<path fill="none" stroke="black" d="M319.12,-287.7C319.12,-280.41 319.12,-271.73 319.12,-263.54"/>
<polygon fill="black" stroke="black" points="322.63,-263.62 319.13,-253.62 315.63,-263.62 322.63,-263.62"/>
</g>
<!-- 39 -->
<g id="node40" class="node">
<title>39</title>
<polygon fill="none" stroke="black" points="485.75,-540 332.5,-540 332.5,-504 485.75,-504 485.75,-540"/>
<text text-anchor="middle" x="409.12" y="-516.95" font-family="Times,serif" font-size="14.00">key&#45;management&#45;system</text>
</g>
<!-- 39&#45;&gt;20 -->
<g id="edge51" class="edge">
<title>39&#45;&gt;20</title>
<path fill="none" stroke="black" d="M445.09,-503.52C463.96,-494.34 487.28,-483.01 507.42,-473.22"/>
<polygon fill="black" stroke="black" points="508.79,-476.44 516.26,-468.92 505.73,-470.15 508.79,-476.44"/>
</g>
<!-- 40 -->
<g id="node41" class="node">
<title>40</title>
<polygon fill="none" stroke="black" points="546.12,-1332 488.12,-1332 488.12,-1296 546.12,-1296 546.12,-1332"/>
<text text-anchor="middle" x="517.12" y="-1308.95" font-family="Times,serif" font-size="14.00">cfgsync</text>
</g>
<!-- 41 -->
<g id="node42" class="node">
<title>41</title>
<polygon fill="none" stroke="black" points="544.12,-1260 490.12,-1260 490.12,-1224 544.12,-1224 544.12,-1260"/>
<text text-anchor="middle" x="517.12" y="-1236.95" font-family="Times,serif" font-size="14.00">tests</text>
</g>
<!-- 40&#45;&gt;41 -->
<g id="edge52" class="edge">
<title>40&#45;&gt;41</title>
<path fill="none" stroke="black" d="M517.12,-1295.7C517.12,-1288.41 517.12,-1279.73 517.12,-1271.54"/>
<polygon fill="black" stroke="black" points="520.63,-1271.62 517.13,-1261.62 513.63,-1271.62 520.63,-1271.62"/>
</g>
<!-- 41&#45;&gt;10 -->
<g id="edge53" class="edge">
<title>41&#45;&gt;10</title>
<path fill="none" stroke="black" d="M507.24,-1223.7C502.78,-1215.9 497.42,-1206.51 492.46,-1197.83"/>
<polygon fill="black" stroke="black" points="495.65,-1196.36 487.65,-1189.42 489.57,-1199.84 495.65,-1196.36"/>
</g>
</g>
</svg>
